<?xml version="1.0" encoding="UTF-8"?>
<svg width="410" height="404" viewBox="0 0 410 404" fill="none" xmlns="http://www.w3.org/2000/svg">
  <g filter="url(#filter0_d_1_21)">
    <path d="M399.5 39.5L205 364.5C202.5 368.5 197.5 368.5 195 364.5L0.5 39.5C-2.5 34.5 1.5 28 7.5 28H392.5C398.5 28 402.5 34.5 399.5 39.5Z" fill="url(#paint0_linear_1_21)"/>
    <path d="M205 364.5L399.5 39.5C402.5 34.5 398.5 28 392.5 28H205V364.5Z" fill="url(#paint1_linear_1_21)"/>
    <path d="M205 364.5L0.5 39.5C-2.5 34.5 1.5 28 7.5 28H205V364.5Z" fill="url(#paint2_linear_1_21)"/>
    <path d="M205 364.5L399.5 39.5C402.5 34.5 398.5 28 392.5 28H205V364.5Z" fill="url(#paint3_linear_1_21)"/>
    <path d="M205 364.5L0.5 39.5C-2.5 34.5 1.5 28 7.5 28H205V364.5Z" fill="url(#paint4_linear_1_21)"/>
  </g>
  <defs>
    <filter id="filter0_d_1_21" x="0" y="0" width="410" height="404" filterUnits="userSpaceOnUse" color-interpolation-filters="sRGB">
      <feFlood flood-opacity="0" result="BackgroundImageFix"/>
      <feColorMatrix in="SourceAlpha" type="matrix" values="0 0 0 0 0 0 0 0 0 0 0 0 0 0 0 0 0 0 127 0" result="hardAlpha"/>
      <feOffset dy="4"/>
      <feGaussianBlur stdDeviation="2"/>
      <feComposite in2="hardAlpha" operator="out"/>
      <feColorMatrix type="matrix" values="0 0 0 0 0 0 0 0 0 0 0 0 0 0 0 0 0 0 0.25 0"/>
      <feBlend mode="normal" in2="BackgroundImageFix" result="effect1_dropShadow_1_21"/>
      <feBlend mode="normal" in="SourceGraphic" in2="effect1_dropShadow_1_21" result="shape"/>
    </filter>
    <linearGradient id="paint0_linear_1_21" x1="205" y1="28" x2="205" y2="364.5" gradientUnits="userSpaceOnUse">
      <stop stop-color="#41D1FF"/>
      <stop offset="1" stop-color="#BD34FE"/>
    </linearGradient>
    <linearGradient id="paint1_linear_1_21" x1="205" y1="28" x2="205" y2="364.5" gradientUnits="userSpaceOnUse">
      <stop stop-color="#FFEA83"/>
      <stop offset="0.0833333" stop-color="#FFDD35"/>
      <stop offset="1" stop-color="#FFA800"/>
    </linearGradient>
    <linearGradient id="paint2_linear_1_21" x1="205" y1="28" x2="205" y2="364.5" gradientUnits="userSpaceOnUse">
      <stop stop-color="#FFEA83"/>
      <stop offset="0.0833333" stop-color="#FFDD35"/>
      <stop offset="1" stop-color="#FFA800"/>
    </linearGradient>
    <linearGradient id="paint3_linear_1_21" x1="205" y1="28" x2="205" y2="364.5" gradientUnits="userSpaceOnUse">
      <stop stop-color="#FFEA83"/>
      <stop offset="0.0833333" stop-color="#FFDD35"/>
      <stop offset="1" stop-color="#FFA800"/>
    </linearGradient>
    <linearGradient id="paint4_linear_1_21" x1="205" y1="28" x2="205" y2="364.5" gradientUnits="userSpaceOnUse">
      <stop stop-color="#FFEA83"/>
      <stop offset="0.0833333" stop-color="#FFDD35"/>
      <stop offset="1" stop-color="#FFA800"/>
    </linearGradient>
  </defs>
</svg>
